<?xml version="1.0" encoding="utf-8"?>
<!-- Generator: Adobe Illustrator 22.0.0, SVG Export Plug-In . SVG Version: 6.00 Build 0)  -->
<svg version="1.1" id="Layer_1" xmlns="http://www.w3.org/2000/svg" xmlns:xlink="http://www.w3.org/1999/xlink" x="0px" y="0px"
	 viewBox="0 0 800 417.1" style="enable-background:new 0 0 800 417.1;" xml:space="preserve">
<style type="text/css">
	.st0{fill:#086ECC;}
</style>
<g>
	<g>
		<path class="st0" d="M297.2,48.7C279.8,18.6,247.6,0,212.8,0H2.1C0.9,0,0,0.9,0,2.1v273.4c0,1.1,0.9,2.1,2.1,2.1h210.7
			c34.8,0,67-18.6,84.4-48.7l23.9-41.3c17.4-30.2,17.4-67.3,0-97.4L297.2,48.7z M277.9,147.9l-38.3,66.3c-2.2,3.8-6.3,6.2-10.8,6.2
			H59.2c-1.1,0-2.1-0.9-2.1-2.1v-159c0-1.1,0.9-2.1,2.1-2.1h169.6c4.4,0,8.5,2.4,10.8,6.2l38.3,66.3
			C281.1,135.3,281.1,142.2,277.9,147.9z"/>
		<g>
			<path class="st0" d="M365.2,277.5h53c1.1,0,2.1-0.9,2.1-2.1V99.7c0-1.1-0.9-2.1-2.1-2.1h-53c-1.1,0-2.1,0.9-2.1,2.1v175.7
				C363.1,276.6,364,277.5,365.2,277.5z"/>
			<path class="st0" d="M365.2,57.2h53c1.1,0,2.1-0.9,2.1-2.1v-53c0-1.1-0.9-2.1-2.1-2.1h-53c-1.1,0-2.1,0.9-2.1,2.1v53
				C363.1,56.2,364,57.2,365.2,57.2z"/>
		</g>
		<g>
			<path class="st0" d="M544.1,214.1l-38.3-66.3c-3.2-5.6-3.2-12.6,0-18.2l38.3-66.3c2.2-3.8,6.3-6.2,10.8-6.2h185.9
				c1.1,0,2.1-0.9,2.1-2.1v-53c0-1.1-0.9-2.1-2.1-2.1H570.9c-34.8,0-67,18.6-84.4,48.7L462.7,90c-17.4,30.2-17.4,67.3,0,97.4
				l23.9,41.3c17.4,30.2,49.6,48.7,84.4,48.7h77.1c1.5,0,2.8-0.8,3.6-2.1l30.5-52.8c0.6-1-0.1-2.3-1.3-2.3H554.9
				C550.4,220.4,546.3,218,544.1,214.1z"/>
			<path class="st0" d="M797.9,119.3H627.1c-1.1,0-2.1,0.9-2.1,2.1v53c0,1.1,0.9,2.1,2.1,2.1h80.5c0.7,0,1.4-0.4,1.8-1l29.5-51
				c0.4-0.7,1.1-1.1,1.8-1.1l0,0c1.2,0,2.1,0.9,2.1,2.1v150c0,1.1,0.9,2.1,2.1,2.1h53c1.1,0,2.1-0.9,2.1-2.1V121.4
				C800,120.3,799.1,119.3,797.9,119.3z"/>
		</g>
	</g>
	<g>
		<path class="st0" d="M26.5,328.1H0v72.1h25.8c10.6,0,18.8-3.2,24.4-9.7c5.6-6.4,8.4-15.2,8.4-26.2c0-11-2.7-19.9-8.1-26.4
			C45.1,331.4,37,328.1,26.5,328.1z M10.8,337.7h15.4c14.4,0,21.4,8.7,21.4,26.7c0,17.6-7.2,26.1-22.1,26.1H10.8V337.7z"/>
		<rect x="66" y="328.1" class="st0" width="9.9" height="11.8"/>
		<rect x="66" y="347.5" class="st0" width="9.9" height="52.7"/>
		<rect x="85" y="328.1" class="st0" width="9.9" height="72.1"/>
		<rect x="104" y="347.5" class="st0" width="9.9" height="52.7"/>
		<rect x="104" y="328.1" class="st0" width="9.9" height="11.8"/>
		<path class="st0" d="M157.3,352.4c-3.7-4.1-8.7-6.1-14.7-6.1c-6.4,0-11.8,2.4-16.2,7.1c-4.3,4.7-6.5,11-6.5,18.9
			c0,7.5,2.2,13.8,6.4,18.7c4.3,4.9,9.9,7.4,16.7,7.4c3.6,0,6.6-0.7,9-2.1c1.8-1,3.6-2.5,5.2-4.3v4.7c0,8.1-4.4,12.1-13.6,12.1
			c-8.1,0-12.3-2.3-13-6.9l-0.1-0.8h-9.3l0.1,1.1c0.5,4.7,2.7,8.5,6.7,11.1c3.8,2.5,9.2,3.8,15.8,3.8c7.1,0,12.8-1.7,17-5.2
			c4.2-3.5,6.3-8.7,6.3-15.4v-49h-9.9V352.4z M157.9,371.9c0,12-4.7,17.9-14.4,17.9c-4.4,0-7.6-1.5-9.9-4.6
			c-2.3-3.1-3.5-7.4-3.5-12.8c0-5.4,1.2-9.7,3.5-12.9c2.3-3.1,5.5-4.6,9.9-4.6C153.2,354.9,157.9,360.5,157.9,371.9z"/>
		<path class="st0" d="M198.3,346.2c-7.3,0-13.4,2.7-18.1,8c-4.6,5.3-7,11.9-7,19.6c0,7.9,2.3,14.5,6.9,19.7
			c4.6,5.3,10.9,7.9,18.6,7.9c6,0,11-1.6,14.9-4.7c4-3.1,6.6-7.5,7.8-13.2l0.3-1.2H212l-0.2,0.7c-1.7,6.5-5.9,9.7-13.1,9.7
			c-4.7,0-8.2-1.5-10.9-4.7c-2.5-3-4-6.8-4.5-11.5h39.2v-1c0-8.8-2.1-16-6.3-21.4C212.1,349,206,346.2,198.3,346.2z M198.3,354.4
			c4.3,0,7.5,1.3,9.9,4c2.2,2.5,3.5,6,3.9,10.4h-28.4c0.7-4.1,2.2-7.5,4.6-10.2C190.7,355.8,194,354.4,198.3,354.4z"/>
		<path class="st0" d="M253.6,346.3c-6.2,0-11.4,2.1-15.3,6.4v-5.2h-9.9v52.7h9.9V368c0-3.9,1.2-7,3.6-9.4c2.5-2.5,5.5-3.6,9.3-3.6
			c3.3,0,6,0.8,7.8,2.5c1.8,1.6,2.7,3.9,2.7,6.9v35.9h9.9v-36.6c0-5.5-1.6-9.8-4.8-12.8C263.7,347.8,259.2,346.3,253.6,346.3z"/>
		<path class="st0" d="M302.9,354.7c3.5,0,6.4,0.9,8.6,2.7c2.2,1.8,3.5,4.3,4.1,7.6l0.1,0.8h10l-0.2-1.1c-1-5.6-3.4-10.2-7.4-13.5
			c-4-3.3-9.1-5-15.2-5c-7.7,0-13.9,2.7-18.5,8c-4.6,5.3-7,11.9-7,19.7s2.3,14.4,7,19.7c4.7,5.3,10.9,8,18.5,8
			c6.6,0,11.9-1.8,15.9-5.3c4-3.5,6.3-8.5,6.8-14.8l0.1-1.1h-9.8l-0.1,0.9c-0.3,3.7-1.6,6.6-3.8,8.6c-2.2,2-5.3,3-9.1,3
			c-5,0-8.7-1.7-11.3-5.3c-2.7-3.6-4.1-8.2-4.1-13.8s1.4-10.2,4.1-13.8C294.2,356.5,297.9,354.7,302.9,354.7z"/>
		<path class="st0" d="M353.3,346.2c-7.3,0-13.4,2.7-18.1,8c-4.6,5.3-7,11.9-7,19.6c0,7.9,2.3,14.5,6.9,19.7
			c4.6,5.3,10.9,7.9,18.6,7.9c6,0,11-1.6,14.9-4.7c4-3.1,6.6-7.5,7.8-13.2l0.3-1.2h-9.7l-0.2,0.7c-1.7,6.5-5.9,9.7-13.1,9.7
			c-4.7,0-8.2-1.5-10.9-4.7c-2.5-3-4-6.8-4.5-11.5h39.2v-1c0-8.8-2.1-16-6.3-21.4C367.1,349,361.1,346.2,353.3,346.2z M353.3,354.4
			c4.3,0,7.5,1.3,9.9,4c2.2,2.5,3.5,6,3.9,10.4h-28.4c0.7-4.1,2.2-7.5,4.6-10.2C345.8,355.8,349.1,354.4,353.3,354.4z"/>
		<rect x="399.1" y="328.1" class="st0" width="9.9" height="11.8"/>
		<rect x="399.1" y="347.5" class="st0" width="9.9" height="52.7"/>
		<path class="st0" d="M443,346.3c-6.2,0-11.4,2.1-15.3,6.4v-5.2h-9.9v52.7h9.9V368c0-3.9,1.2-7,3.6-9.4c2.5-2.5,5.5-3.6,9.3-3.6
			c3.3,0,6,0.8,7.8,2.5c1.8,1.6,2.7,3.9,2.7,6.9v35.9h9.9v-36.6c0-5.5-1.6-9.8-4.8-12.8C453.1,347.8,448.6,346.3,443,346.3z"/>
		<path class="st0" d="M517.2,370.7h21.1v0.7c0,6-1.7,11-5.2,14.9c-3.4,3.8-8.5,5.8-15,5.8c-6.8,0-12.4-2.5-16.7-7.6
			c-4.3-5.1-6.5-11.8-6.5-20.1c0-8.4,2-15.3,6-20.5c3.9-5.1,9.8-7.7,17.6-7.7c5.2,0,9.4,1.2,12.6,3.7c3.1,2.4,5.2,6,6.1,10.5
			l0.2,0.8h11.1L548,350c-1.2-7.2-4.4-13-9.5-17.1c-5.1-4.2-11.8-6.3-20-6.3c-10.9,0-19.5,3.6-25.6,10.7c-6,7.1-9.1,16.2-9.1,27.1
			c0,10.9,3.2,20,9.4,26.9c6.2,6.9,14.5,10.4,24.6,10.4c9.1,0,16.4-3.3,21.6-9.7l2.3,8.2h7.4v-39h-31.9V370.7z"/>
		<path class="st0" d="M598.5,391.9v-28.4c0-11.3-6.5-17.1-19.4-17.1c-6.6,0-11.9,1.7-15.5,5.1c-3.7,3.4-5.7,7.7-6.1,13l-0.1,1h9.6
			l0.1-0.9c0.5-6.9,4.5-10.3,12.1-10.3c3.4,0,5.9,0.7,7.6,2.1c1.7,1.4,2.5,3.3,2.5,5.9c0,2.2-0.7,3.7-2.3,4.5
			c-1.7,1-4.7,1.7-8.8,2.1c-2.8,0.3-5.3,0.6-7.4,1c-2.1,0.4-4.2,1-6.2,1.8c-2.1,0.8-3.8,1.8-5.2,2.9c-1.4,1.2-2.4,2.7-3.3,4.6
			c-0.8,1.9-1.2,4.1-1.2,6.5c0,4.9,1.8,8.8,5.3,11.5c3.5,2.6,7.9,3.9,13.1,3.9c6.3,0,11.6-2.2,15.7-6.5c0.2,2.6,0.8,4.3,1.7,5.3
			l0.3,0.3h9.1v-1.8l-0.4-0.3C599.4,397.7,598.5,396.5,598.5,391.9z M575.1,393.1c-6.6,0-9.6-2.4-9.6-7.6c0-3,0.9-5,2.8-6.1
			c2.1-1.2,5.6-2.1,10.4-2.7c4.2-0.5,7.8-1.3,10.7-2.6v6.2c0,3.2-1.2,6-3.7,8.7C583.2,391.8,579.7,393.1,575.1,393.1z"/>
		<path class="st0" d="M660,346.3c-3.3,0-6.5,0.9-9.4,2.5c-2.5,1.4-4.5,3.3-6,5.5c-2.5-5.4-7.1-8.1-13.5-8.1c-3.2,0-6.3,0.8-9,2.4
			c-2,1.2-3.7,2.6-5.1,4.3v-5.6h-9.9v52.7h9.9v-32.6c0-3.6,1.2-6.5,3.8-9c2.5-2.5,5.3-3.7,8.3-3.7c2.3,0,4.2,0.8,5.6,2.4
			c1.4,1.6,2.2,3.9,2.2,6.7v36.2h9.9v-32.6c0-3.6,1.1-6.6,3.5-9c2.3-2.4,4.9-3.6,8-3.6c2.4,0,4.3,0.8,5.9,2.4
			c1.6,1.6,2.4,3.8,2.4,6.6v36.2h9.9v-36.6c0-5.4-1.5-9.7-4.5-12.7C668.9,347.8,664.9,346.3,660,346.3z"/>
		<rect x="685" y="328.1" class="st0" width="9.9" height="11.8"/>
		<rect x="685" y="347.5" class="st0" width="9.9" height="52.7"/>
		<path class="st0" d="M729,346.3c-6.2,0-11.4,2.1-15.3,6.4v-5.2h-9.9v52.7h9.9V368c0-3.9,1.2-7,3.6-9.4c2.5-2.5,5.5-3.6,9.3-3.6
			c3.3,0,6,0.8,7.8,2.5c1.8,1.6,2.7,3.9,2.7,6.9v35.9h9.9v-36.6c0-5.5-1.6-9.8-4.8-12.8C739,347.8,734.5,346.3,729,346.3z"/>
		<path class="st0" d="M790.1,347.5v4.9c-3.7-4.1-8.7-6.1-14.7-6.1c-6.4,0-11.8,2.4-16.2,7.1c-4.3,4.7-6.5,11-6.5,18.9
			c0,7.5,2.2,13.8,6.4,18.7c4.3,4.9,9.9,7.4,16.7,7.4c3.6,0,6.6-0.7,9-2.1c1.8-1,3.6-2.5,5.2-4.3v4.7c0,8.1-4.4,12.1-13.6,12.1
			c-8.1,0-12.3-2.3-13-6.9l-0.1-0.8h-9.3l0.1,1.1c0.5,4.7,2.7,8.5,6.7,11.1c3.8,2.5,9.2,3.8,15.8,3.8c7.1,0,12.8-1.7,17-5.2
			c4.2-3.5,6.3-8.7,6.3-15.4v-49H790.1z M790.7,371.9c0,12-4.7,17.9-14.4,17.9c-4.4,0-7.6-1.5-9.9-4.6c-2.3-3.1-3.5-7.4-3.5-12.8
			c0-5.4,1.2-9.7,3.5-12.9c2.3-3.1,5.5-4.6,9.9-4.6C785.9,354.9,790.7,360.5,790.7,371.9z"/>
	</g>
</g>
</svg>
