<?xml version="1.0" encoding="utf-8"?>
<!-- Generator: Adobe Illustrator 22.0.0, SVG Export Plug-In . SVG Version: 6.00 Build 0)  -->
<svg version="1.1" id="Layer_1" xmlns="http://www.w3.org/2000/svg" xmlns:xlink="http://www.w3.org/1999/xlink" x="0px" y="0px"
	 viewBox="0 0 800 277.5" style="enable-background:new 0 0 800 277.5;" xml:space="preserve">
<style type="text/css">
	.st0{fill:#086ECC;}
</style>
<g>
	<path class="st0" d="M297.2,48.7C279.8,18.6,247.6,0,212.8,0H2.1C0.9,0,0,0.9,0,2.1v273.4c0,1.1,0.9,2.1,2.1,2.1h210.7
		c34.8,0,67-18.6,84.4-48.7l23.9-41.3c17.4-30.2,17.4-67.3,0-97.4L297.2,48.7z M277.9,147.9l-38.3,66.3c-2.2,3.8-6.3,6.2-10.8,6.2
		H59.2c-1.1,0-2.1-0.9-2.1-2.1v-159c0-1.1,0.9-2.1,2.1-2.1h169.6c4.4,0,8.5,2.4,10.8,6.2l38.3,66.3
		C281.1,135.3,281.1,142.2,277.9,147.9z"/>
	<g>
		<path class="st0" d="M365.2,277.5h53c1.1,0,2.1-0.9,2.1-2.1V99.7c0-1.1-0.9-2.1-2.1-2.1h-53c-1.1,0-2.1,0.9-2.1,2.1v175.7
			C363.1,276.6,364,277.5,365.2,277.5z"/>
		<path class="st0" d="M365.2,57.2h53c1.1,0,2.1-0.9,2.1-2.1v-53c0-1.1-0.9-2.1-2.1-2.1h-53c-1.1,0-2.1,0.9-2.1,2.1v53
			C363.1,56.2,364,57.2,365.2,57.2z"/>
	</g>
	<g>
		<path class="st0" d="M544.1,214.1l-38.3-66.3c-3.2-5.6-3.2-12.6,0-18.2l38.3-66.3c2.2-3.8,6.3-6.2,10.8-6.2h185.9
			c1.1,0,2.1-0.9,2.1-2.1v-53c0-1.1-0.9-2.1-2.1-2.1H570.9c-34.8,0-67,18.6-84.4,48.7L462.7,90c-17.4,30.2-17.4,67.3,0,97.4
			l23.9,41.3c17.4,30.2,49.6,48.7,84.4,48.7h77.1c1.5,0,2.8-0.8,3.6-2.1l30.5-52.8c0.6-1-0.1-2.3-1.3-2.3H554.9
			C550.4,220.4,546.3,218,544.1,214.1z"/>
		<path class="st0" d="M797.9,119.3H627.1c-1.1,0-2.1,0.9-2.1,2.1v53c0,1.1,0.9,2.1,2.1,2.1h80.5c0.7,0,1.4-0.4,1.8-1l29.5-51
			c0.4-0.7,1.1-1.1,1.8-1.1l0,0c1.2,0,2.1,0.9,2.1,2.1v150c0,1.1,0.9,2.1,2.1,2.1h53c1.1,0,2.1-0.9,2.1-2.1V121.4
			C800,120.3,799.1,119.3,797.9,119.3z"/>
	</g>
</g>
</svg>
