<?xml version="1.0" encoding="utf-8"?>
<!-- Generator: Adobe Illustrator 22.0.0, SVG Export Plug-In . SVG Version: 6.00 Build 0)  -->
<svg version="1.1" id="Layer_1" xmlns="http://www.w3.org/2000/svg" xmlns:xlink="http://www.w3.org/1999/xlink" x="0px" y="0px"
	 viewBox="0 0 800 274.6" style="enable-background:new 0 0 800 274.6;" xml:space="preserve">
<style type="text/css">
	.st0{fill:#FFFFFF;}
</style>
<g>
	<path class="st0" d="M294,48.2C276.8,18.4,245,0,210.5,0H2C0.9,0,0,0.9,0,2v270.5c0,1.1,0.9,2,2,2h208.5
		c34.4,0,66.3-18.4,83.5-48.2l23.6-40.9c17.2-29.8,17.2-66.6,0-96.4L294,48.2z M276,144.5l-38.9,67.4c-2.2,3.8-6.3,6.1-10.6,6.1
		H58.6c-1.1,0-2-0.9-2-2V58.6c0-1.1,0.9-2,2-2h167.8c4.4,0,8.5,2.3,10.6,6.1l38.9,67.4C278.6,134.6,278.6,140,276,144.5z"/>
	<g>
		<path class="st0" d="M365.4,274.6h52.5c1.1,0,2-0.9,2-2V98.7c0-1.1-0.9-2-2-2h-52.5c-1.1,0-2,0.9-2,2v173.9
			C363.4,273.7,364.3,274.6,365.4,274.6z"/>
		<path class="st0" d="M365.4,56.6h52.5c1.1,0,2-0.9,2-2V2c0-1.1-0.9-2-2-2h-52.5c-1.1,0-2,0.9-2,2v52.5
			C363.4,55.7,364.3,56.6,365.4,56.6z"/>
	</g>
	<g>
		<path class="st0" d="M546.8,211.9l-38.9-67.4c-2.6-4.4-2.6-9.9,0-14.3l38.9-67.4c2.2-3.8,6.3-6.1,10.6-6.1h183.9c1.1,0,2-0.9,2-2
			V2c0-1.1-0.9-2-2-2h-168c-34.4,0-66.3,18.4-83.5,48.2l-23.6,40.9c-17.2,29.8-17.2,66.6,0,96.4l23.6,40.9
			c17.2,29.8,49.1,48.2,83.5,48.2h77.3c1.5,0,2.8-0.8,3.5-2l30.1-52.2c0.6-1-0.1-2.3-1.3-2.3H557.5C553.1,218,549,215.7,546.8,211.9
			z"/>
		<path class="st0" d="M798,118.1h-46.8h-7.7h0h-7.7H629.9c-1.1,0-2,0.9-2,2v52.5c0,1.1,0.9,2,2,2h79.6c0.7,0,1.4-0.4,1.8-1l30-51.9
			c0.2-0.3,0.6-0.6,1-0.6l0,0c0.6,0,1.1,0.5,1.1,1.1v150.3c0,1.1,0.9,2,2,2H798c1.1,0,2-0.9,2-2V120.1
			C800,119,799.1,118.1,798,118.1z"/>
	</g>
</g>
</svg>
