<?xml version="1.0" encoding="utf-8"?>
<!-- Generator: Adobe Illustrator 22.0.0, SVG Export Plug-In . SVG Version: 6.00 Build 0)  -->
<svg version="1.1" id="Layer_1" xmlns="http://www.w3.org/2000/svg" xmlns:xlink="http://www.w3.org/1999/xlink" x="0px" y="0px"
	 viewBox="0 0 1200 1200" style="enable-background:new 0 0 1200 1200;" xml:space="preserve">
<style type="text/css">
	.st0{fill:#FFFFFF;}
	.st1{fill:#086ECC;}
</style>
<rect class="st0" width="1200" height="1200"/>
<g>
	<path class="st1" d="M497.2,510c-17.4-30.2-49.6-48.7-84.4-48.7H202.1c-1.1,0-2.1,0.9-2.1,2.1v273.4c0,1.1,0.9,2.1,2.1,2.1h210.7
		c34.8,0,67-18.6,84.4-48.7l23.9-41.3c17.4-30.2,17.4-67.3,0-97.4L497.2,510z M477.9,609.1l-38.3,66.3c-2.2,3.8-6.3,6.2-10.8,6.2
		H259.2c-1.1,0-2.1-0.9-2.1-2.1v-159c0-1.1,0.9-2.1,2.1-2.1h169.6c4.4,0,8.5,2.4,10.8,6.2l38.3,66.3
		C481.1,596.5,481.1,603.5,477.9,609.1z"/>
	<g>
		<path class="st1" d="M565.2,738.8h53c1.1,0,2.1-0.9,2.1-2.1V561c0-1.1-0.9-2.1-2.1-2.1h-53c-1.1,0-2.1,0.9-2.1,2.1v175.7
			C563.1,737.8,564,738.8,565.2,738.8z"/>
		<path class="st1" d="M565.2,518.4h53c1.1,0,2.1-0.9,2.1-2.1v-53c0-1.1-0.9-2.1-2.1-2.1h-53c-1.1,0-2.1,0.9-2.1,2.1v53
			C563.1,517.5,564,518.4,565.2,518.4z"/>
	</g>
	<g>
		<path class="st1" d="M744.1,675.4l-38.3-66.3c-3.2-5.6-3.2-12.6,0-18.2l38.3-66.3c2.2-3.8,6.3-6.2,10.8-6.2h185.9
			c1.1,0,2.1-0.9,2.1-2.1v-53c0-1.1-0.9-2.1-2.1-2.1H770.9c-34.8,0-67,18.6-84.4,48.7l-23.9,41.3c-17.4,30.2-17.4,67.3,0,97.4
			l23.9,41.3c17.4,30.2,49.6,48.7,84.4,48.7h77.1c1.5,0,2.8-0.8,3.6-2.1l30.5-52.8c0.6-1-0.1-2.3-1.3-2.3H754.9
			C750.4,681.6,746.3,679.2,744.1,675.4z"/>
		<path class="st1" d="M997.9,580.6H827.1c-1.1,0-2.1,0.9-2.1,2.1v53c0,1.1,0.9,2.1,2.1,2.1h80.5c0.7,0,1.4-0.4,1.8-1l29.5-51
			c0.4-0.7,1.1-1.1,1.8-1.1l0,0c1.2,0,2.1,0.9,2.1,2.1v150c0,1.1,0.9,2.1,2.1,2.1h53c1.1,0,2.1-0.9,2.1-2.1V582.6
			C1000,581.5,999.1,580.6,997.9,580.6z"/>
	</g>
</g>
</svg>
