<?xml version="1.0" encoding="utf-8"?>
<!-- Generator: Adobe Illustrator 22.0.0, SVG Export Plug-In . SVG Version: 6.00 Build 0)  -->
<svg version="1.1" id="Layer_1" xmlns="http://www.w3.org/2000/svg" xmlns:xlink="http://www.w3.org/1999/xlink" x="0px" y="0px"
	 viewBox="0 0 1200 1200" style="enable-background:new 0 0 1200 1200;" xml:space="preserve">
<style type="text/css">
	.st0{fill:#086ECC;}
	.st1{fill:#FFFFFF;}
</style>
<rect class="st0" width="1200" height="1200"/>
<g>
	<g>
		<path class="st1" d="M494,441c-17.2-29.8-49.1-48.2-83.5-48.2H202c-1.1,0-2,0.9-2,2v270.5c0,1.1,0.9,2,2,2h208.5
			c34.4,0,66.3-18.4,83.5-48.2l23.6-40.9c17.2-29.8,17.2-66.6,0-96.4L494,441z M476,537.2l-38.9,67.4c-2.2,3.8-6.3,6.1-10.6,6.1
			H258.6c-1.1,0-2-0.9-2-2V451.4c0-1.1,0.9-2,2-2h167.8c4.4,0,8.5,2.3,10.6,6.1l38.9,67.4C478.6,527.3,478.6,532.8,476,537.2z"/>
		<g>
			<path class="st1" d="M565.4,667.4h52.5c1.1,0,2-0.9,2-2V491.4c0-1.1-0.9-2-2-2h-52.5c-1.1,0-2,0.9-2,2v173.9
				C563.4,666.4,564.3,667.4,565.4,667.4z"/>
			<path class="st1" d="M565.4,449.3h52.5c1.1,0,2-0.9,2-2v-52.5c0-1.1-0.9-2-2-2h-52.5c-1.1,0-2,0.9-2,2v52.5
				C563.4,448.4,564.3,449.3,565.4,449.3z"/>
		</g>
		<g>
			<path class="st1" d="M746.8,604.6l-38.9-67.4c-2.6-4.4-2.6-9.9,0-14.3l38.9-67.4c2.2-3.8,6.3-6.1,10.6-6.1h183.9c1.1,0,2-0.9,2-2
				v-52.5c0-1.1-0.9-2-2-2h-168c-34.4,0-66.3,18.4-83.5,48.2l-23.6,40.9c-17.2,29.8-17.2,66.6,0,96.4l23.6,40.9
				c17.2,29.8,49.1,48.2,83.5,48.2h77.3c1.5,0,2.8-0.8,3.5-2l30.1-52.2c0.6-1-0.1-2.3-1.3-2.3H757.5
				C753.1,610.8,749,608.4,746.8,604.6z"/>
			<path class="st1" d="M998,510.8h-46.8h-7.7h0h-7.7H829.9c-1.1,0-2,0.9-2,2v52.5c0,1.1,0.9,2,2,2h79.6c0.7,0,1.4-0.4,1.8-1
				l30-51.9c0.2-0.3,0.6-0.6,1-0.6l0,0c0.6,0,1.1,0.5,1.1,1.1v150.3c0,1.1,0.9,2,2,2H998c1.1,0,2-0.9,2-2V512.9
				C1000,511.7,999.1,510.8,998,510.8z"/>
		</g>
	</g>
	<g>
		<path class="st1" d="M226.5,714.8H200v72.1h25.8c10.6,0,18.8-3.2,24.4-9.7c5.6-6.4,8.4-15.2,8.4-26.2c0-11-2.7-19.9-8.1-26.4
			C245.1,718.1,237,714.8,226.5,714.8z M210.8,724.4h15.4c14.4,0,21.4,8.7,21.4,26.7c0,17.6-7.2,26.1-22.1,26.1h-14.7V724.4z"/>
		<rect x="266" y="714.8" class="st1" width="9.9" height="11.8"/>
		<rect x="266" y="734.2" class="st1" width="9.9" height="52.7"/>
		<rect x="285" y="714.8" class="st1" width="9.9" height="72.1"/>
		<rect x="304" y="734.2" class="st1" width="9.9" height="52.7"/>
		<rect x="304" y="714.8" class="st1" width="9.9" height="11.8"/>
		<path class="st1" d="M357.3,739.1c-3.7-4.1-8.7-6.1-14.7-6.1c-6.4,0-11.8,2.4-16.2,7.1c-4.3,4.7-6.5,11-6.5,18.9
			c0,7.5,2.2,13.8,6.4,18.7c4.3,4.9,9.9,7.4,16.7,7.4c3.6,0,6.6-0.7,9-2.1c1.8-1,3.6-2.5,5.2-4.3v4.7c0,8.1-4.4,12.1-13.6,12.1
			c-8.1,0-12.3-2.3-13-6.9l-0.1-0.8h-9.3l0.1,1.1c0.5,4.7,2.7,8.5,6.7,11.1c3.8,2.5,9.2,3.8,15.8,3.8c7.1,0,12.8-1.7,17-5.2
			c4.2-3.5,6.3-8.7,6.3-15.4v-49h-9.9V739.1z M357.9,758.6c0,12-4.7,17.9-14.4,17.9c-4.4,0-7.6-1.5-9.9-4.6
			c-2.3-3.1-3.5-7.4-3.5-12.8c0-5.4,1.2-9.7,3.5-12.9c2.3-3.1,5.5-4.6,9.9-4.6C353.2,741.6,357.9,747.2,357.9,758.6z"/>
		<path class="st1" d="M398.3,732.9c-7.3,0-13.4,2.7-18.1,8c-4.6,5.3-7,11.9-7,19.6c0,7.9,2.3,14.5,6.9,19.7
			c4.6,5.3,10.9,7.9,18.6,7.9c6,0,11-1.6,14.9-4.7c4-3.1,6.6-7.5,7.8-13.2l0.3-1.2H412l-0.2,0.7c-1.7,6.5-5.9,9.7-13.1,9.7
			c-4.7,0-8.2-1.5-10.9-4.7c-2.5-3-4-6.8-4.5-11.5h39.2v-1c0-8.8-2.1-16-6.3-21.4C412.1,735.7,406,732.9,398.3,732.9z M398.3,741.1
			c4.3,0,7.5,1.3,9.9,4c2.2,2.5,3.5,6,3.9,10.4h-28.4c0.7-4.1,2.2-7.5,4.6-10.2C390.7,742.5,394,741.1,398.3,741.1z"/>
		<path class="st1" d="M453.6,733c-6.2,0-11.4,2.1-15.3,6.4v-5.2h-9.9v52.7h9.9v-32.2c0-3.9,1.2-7,3.6-9.4c2.5-2.5,5.5-3.6,9.3-3.6
			c3.3,0,6,0.8,7.8,2.5c1.8,1.6,2.7,3.9,2.7,6.9v35.9h9.9v-36.6c0-5.5-1.6-9.8-4.8-12.8C463.7,734.5,459.2,733,453.6,733z"/>
		<path class="st1" d="M502.9,741.4c3.5,0,6.4,0.9,8.6,2.7c2.2,1.8,3.5,4.3,4.1,7.6l0.1,0.8h10l-0.2-1.1c-1-5.6-3.4-10.2-7.4-13.5
			c-4-3.3-9.1-5-15.2-5c-7.7,0-13.9,2.7-18.5,8c-4.6,5.3-7,11.9-7,19.7c0,7.8,2.3,14.4,7,19.7c4.7,5.3,10.9,8,18.5,8
			c6.6,0,11.9-1.8,15.9-5.3c4-3.5,6.3-8.5,6.8-14.8l0.1-1.1h-9.8l-0.1,0.9c-0.3,3.7-1.6,6.6-3.8,8.6c-2.2,2-5.3,3-9.1,3
			c-5,0-8.7-1.7-11.3-5.3c-2.7-3.6-4.1-8.2-4.1-13.8c0-5.6,1.4-10.2,4.1-13.8C494.2,743.2,497.9,741.4,502.9,741.4z"/>
		<path class="st1" d="M553.3,732.9c-7.3,0-13.4,2.7-18.1,8c-4.6,5.3-7,11.9-7,19.6c0,7.9,2.3,14.5,6.9,19.7
			c4.6,5.3,10.9,7.9,18.6,7.9c6,0,11-1.6,14.9-4.7c4-3.1,6.6-7.5,7.8-13.2l0.3-1.2h-9.7l-0.2,0.7c-1.7,6.5-5.9,9.7-13.1,9.7
			c-4.7,0-8.2-1.5-10.9-4.7c-2.5-3-4-6.8-4.5-11.5h39.2v-1c0-8.8-2.1-16-6.3-21.4C567.1,735.7,561.1,732.9,553.3,732.9z
			 M553.3,741.1c4.3,0,7.5,1.3,9.9,4c2.2,2.5,3.5,6,3.9,10.4h-28.4c0.7-4.1,2.2-7.5,4.6-10.2C545.8,742.5,549.1,741.1,553.3,741.1z"
			/>
		<rect x="599.1" y="714.8" class="st1" width="9.9" height="11.8"/>
		<rect x="599.1" y="734.2" class="st1" width="9.9" height="52.7"/>
		<path class="st1" d="M643,733c-6.2,0-11.4,2.1-15.3,6.4v-5.2h-9.9v52.7h9.9v-32.2c0-3.9,1.2-7,3.6-9.4c2.5-2.5,5.5-3.6,9.3-3.6
			c3.3,0,6,0.8,7.8,2.5c1.8,1.6,2.7,3.9,2.7,6.9v35.9h9.9v-36.6c0-5.5-1.6-9.8-4.8-12.8C653.1,734.5,648.6,733,643,733z"/>
		<path class="st1" d="M717.2,757.4h21.1v0.7c0,6-1.7,11-5.2,14.9c-3.4,3.8-8.5,5.8-15,5.8c-6.8,0-12.4-2.5-16.7-7.6
			c-4.3-5.1-6.5-11.8-6.5-20.1c0-8.4,2-15.3,6-20.5c3.9-5.1,9.8-7.7,17.6-7.7c5.2,0,9.4,1.2,12.6,3.7c3.1,2.4,5.2,6,6.1,10.5
			l0.2,0.8h11.1l-0.2-1.1c-1.2-7.2-4.4-13-9.5-17.1c-5.1-4.2-11.8-6.3-20-6.3c-10.9,0-19.5,3.6-25.6,10.7c-6,7.1-9.1,16.2-9.1,27.1
			c0,10.9,3.2,20,9.4,26.9c6.2,6.9,14.5,10.4,24.6,10.4c9.1,0,16.4-3.3,21.6-9.7l2.3,8.2h7.4v-39h-31.9V757.4z"/>
		<path class="st1" d="M798.5,778.6v-28.4c0-11.3-6.5-17.1-19.4-17.1c-6.6,0-11.9,1.7-15.5,5.1c-3.7,3.4-5.7,7.7-6.1,13l-0.1,1h9.6
			l0.1-0.9c0.5-6.9,4.5-10.3,12.1-10.3c3.4,0,5.9,0.7,7.6,2.1c1.7,1.4,2.5,3.3,2.5,5.9c0,2.2-0.7,3.7-2.3,4.5
			c-1.7,1-4.7,1.7-8.8,2.1c-2.8,0.3-5.3,0.6-7.4,1c-2.1,0.4-4.2,1-6.2,1.8c-2.1,0.8-3.8,1.8-5.2,2.9c-1.4,1.2-2.4,2.7-3.3,4.6
			c-0.8,1.9-1.2,4.1-1.2,6.5c0,4.9,1.8,8.8,5.3,11.5c3.5,2.6,7.9,3.9,13.1,3.9c6.3,0,11.6-2.2,15.7-6.5c0.2,2.6,0.8,4.3,1.7,5.3
			l0.3,0.3h9.1v-1.8l-0.4-0.3C799.4,784.4,798.5,783.2,798.5,778.6z M775.1,779.8c-6.6,0-9.6-2.4-9.6-7.6c0-3,0.9-5,2.8-6.1
			c2.1-1.2,5.6-2.1,10.4-2.7c4.2-0.5,7.8-1.3,10.7-2.6v6.2c0,3.2-1.2,6-3.7,8.7C783.2,778.5,779.7,779.8,775.1,779.8z"/>
		<path class="st1" d="M860,733c-3.3,0-6.5,0.9-9.4,2.5c-2.5,1.4-4.5,3.3-6,5.5c-2.5-5.4-7.1-8.1-13.5-8.1c-3.2,0-6.3,0.8-9,2.4
			c-2,1.2-3.7,2.6-5.1,4.3v-5.6h-9.9v52.7h9.9v-32.6c0-3.6,1.2-6.5,3.8-9c2.5-2.5,5.3-3.7,8.3-3.7c2.3,0,4.2,0.8,5.6,2.4
			c1.4,1.6,2.2,3.9,2.2,6.7v36.2h9.9v-32.6c0-3.6,1.1-6.6,3.5-9c2.3-2.4,4.9-3.6,8-3.6c2.4,0,4.3,0.8,5.9,2.4
			c1.6,1.6,2.4,3.8,2.4,6.6v36.2h9.9v-36.6c0-5.4-1.5-9.7-4.5-12.7C868.9,734.6,864.9,733,860,733z"/>
		<rect x="885" y="714.8" class="st1" width="9.9" height="11.8"/>
		<rect x="885" y="734.2" class="st1" width="9.9" height="52.7"/>
		<path class="st1" d="M929,733c-6.2,0-11.4,2.1-15.3,6.4v-5.2h-9.9v52.7h9.9v-32.2c0-3.9,1.2-7,3.6-9.4c2.5-2.5,5.5-3.6,9.3-3.6
			c3.3,0,6,0.8,7.8,2.5c1.8,1.6,2.7,3.9,2.7,6.9v35.9h9.9v-36.6c0-5.5-1.6-9.8-4.8-12.8C939,734.5,934.5,733,929,733z"/>
		<path class="st1" d="M990.1,734.2v4.9c-3.7-4.1-8.7-6.1-14.7-6.1c-6.4,0-11.8,2.4-16.2,7.1c-4.3,4.7-6.5,11-6.5,18.9
			c0,7.5,2.2,13.8,6.4,18.7c4.3,4.9,9.9,7.4,16.7,7.4c3.6,0,6.6-0.7,9-2.1c1.8-1,3.6-2.5,5.2-4.3v4.7c0,8.1-4.4,12.1-13.6,12.1
			c-8.1,0-12.3-2.3-13-6.9l-0.1-0.8h-9.3l0.1,1.1c0.5,4.7,2.7,8.5,6.7,11.1c3.8,2.5,9.2,3.8,15.8,3.8c7.1,0,12.8-1.7,17-5.2
			c4.2-3.5,6.3-8.7,6.3-15.4v-49H990.1z M990.7,758.6c0,12-4.7,17.9-14.4,17.9c-4.4,0-7.6-1.5-9.9-4.6c-2.3-3.1-3.5-7.4-3.5-12.8
			c0-5.4,1.2-9.7,3.5-12.9c2.3-3.1,5.5-4.6,9.9-4.6C985.9,741.6,990.7,747.2,990.7,758.6z"/>
	</g>
</g>
</svg>
