<?xml version="1.0" encoding="utf-8"?>
<!-- Generator: Adobe Illustrator 22.0.0, SVG Export Plug-In . SVG Version: 6.00 Build 0)  -->
<svg version="1.1" id="Layer_1" xmlns="http://www.w3.org/2000/svg" xmlns:xlink="http://www.w3.org/1999/xlink" x="0px" y="0px"
	 viewBox="0 0 1200 1200" style="enable-background:new 0 0 1200 1200;" xml:space="preserve">
<style type="text/css">
	.st0{fill:#FFFFFF;}
	.st1{fill:#202123;}
</style>
<rect class="st0" width="1200" height="1200"/>
<g>
	<path class="st1" d="M494,510.9c-17.2-29.8-49.1-48.2-83.5-48.2H202c-1.1,0-2,0.9-2,2v270.5c0,1.1,0.9,2,2,2h208.5
		c34.4,0,66.3-18.4,83.5-48.2l23.6-40.9c17.2-29.8,17.2-66.6,0-96.4L494,510.9z M476,607.2l-38.9,67.4c-2.2,3.8-6.3,6.1-10.6,6.1
		H258.6c-1.1,0-2-0.9-2-2V521.3c0-1.1,0.9-2,2-2h167.8c4.4,0,8.5,2.3,10.6,6.1l38.9,67.4C478.6,597.3,478.6,602.7,476,607.2z"/>
	<g>
		<path class="st1" d="M565.4,737.3h52.5c1.1,0,2-0.9,2-2V561.4c0-1.1-0.9-2-2-2h-52.5c-1.1,0-2,0.9-2,2v173.9
			C563.4,736.4,564.3,737.3,565.4,737.3z"/>
		<path class="st1" d="M565.4,519.3h52.5c1.1,0,2-0.9,2-2v-52.5c0-1.1-0.9-2-2-2h-52.5c-1.1,0-2,0.9-2,2v52.5
			C563.4,518.4,564.3,519.3,565.4,519.3z"/>
	</g>
	<g>
		<path class="st1" d="M746.8,674.6l-38.9-67.4c-2.6-4.4-2.6-9.9,0-14.3l38.9-67.4c2.2-3.8,6.3-6.1,10.6-6.1h183.9c1.1,0,2-0.9,2-2
			v-52.5c0-1.1-0.9-2-2-2h-168c-34.4,0-66.3,18.4-83.5,48.2L666.2,552c-17.2,29.8-17.2,66.6,0,96.4l23.6,40.9
			c17.2,29.8,49.1,48.2,83.5,48.2h77.3c1.5,0,2.8-0.8,3.5-2l30.1-52.2c0.6-1-0.1-2.3-1.3-2.3H757.5
			C753.1,680.7,749,678.4,746.8,674.6z"/>
		<path class="st1" d="M998,580.8h-46.8h-7.7l0,0h-7.7H829.9c-1.1,0-2,0.9-2,2v52.5c0,1.1,0.9,2,2,2h79.6c0.7,0,1.4-0.4,1.8-1
			l30-51.9c0.2-0.3,0.6-0.6,1-0.6l0,0c0.6,0,1.1,0.5,1.1,1.1v150.3c0,1.1,0.9,2,2,2H998c1.1,0,2-0.9,2-2V582.8
			C1000,581.7,999.1,580.8,998,580.8z"/>
	</g>
</g>
</svg>
