<?xml version="1.0" encoding="utf-8"?>
<!-- Generator: Adobe Illustrator 22.0.0, SVG Export Plug-In . SVG Version: 6.00 Build 0)  -->
<svg version="1.1" id="Layer_1" xmlns="http://www.w3.org/2000/svg" xmlns:xlink="http://www.w3.org/1999/xlink" x="0px" y="0px"
	 viewBox="0 0 1200 1200" style="enable-background:new 0 0 1200 1200;" xml:space="preserve">
<style type="text/css">
	.st0{fill:#202123;}
	.st1{fill:#FFFFFF;}
	.st2{opacity:0.3;}
	.st3{fill:none;stroke:#FFFFFF;stroke-miterlimit:10;}
</style>
<rect class="st0" width="1200" height="1200"/>
<path class="st1" d="M494,510.9c-17.2-29.8-49.1-48.2-83.5-48.2H202c-1.1,0-2,0.9-2,2v270.5c0,1.1,0.9,2,2,2h208.5
	c34.4,0,66.3-18.4,83.5-48.2l23.6-40.9c17.2-29.8,17.2-66.6,0-96.4L494,510.9z M476,607.2l-38.9,67.4c-2.2,3.8-6.3,6.1-10.6,6.1
	H258.6c-1.1,0-2-0.9-2-2V521.3c0-1.1,0.9-2,2-2h167.8c4.4,0,8.5,2.3,10.6,6.1l38.9,67.4C478.6,597.3,478.6,602.7,476,607.2z"/>
<g>
	<path class="st1" d="M565.4,737.3h52.5c1.1,0,2-0.9,2-2V561.4c0-1.1-0.9-2-2-2h-52.5c-1.1,0-2,0.9-2,2v173.9
		C563.4,736.4,564.3,737.3,565.4,737.3z"/>
	<path class="st1" d="M565.4,519.3h52.5c1.1,0,2-0.9,2-2v-52.5c0-1.1-0.9-2-2-2h-52.5c-1.1,0-2,0.9-2,2v52.5
		C563.4,518.4,564.3,519.3,565.4,519.3z"/>
</g>
<g>
	<path class="st1" d="M746.8,674.6l-38.9-67.4c-2.6-4.4-2.6-9.9,0-14.3l38.9-67.4c2.2-3.8,6.3-6.1,10.6-6.1h183.9c1.1,0,2-0.9,2-2
		v-52.5c0-1.1-0.9-2-2-2h-168c-34.4,0-66.3,18.4-83.5,48.2L666.2,552c-17.2,29.8-17.2,66.6,0,96.4l23.6,40.9
		c17.2,29.8,49.1,48.2,83.5,48.2h77.3c1.5,0,2.8-0.8,3.5-2l30.1-52.2c0.6-1-0.1-2.3-1.3-2.3H757.5
		C753.1,680.7,749,678.4,746.8,674.6z"/>
	<path class="st1" d="M998,580.8h-46.8h-7.7l0,0h-7.7H829.9c-1.1,0-2,0.9-2,2v52.5c0,1.1,0.9,2,2,2h79.6c0.7,0,1.4-0.4,1.8-1
		l30-51.9c0.2-0.3,0.6-0.6,1-0.6l0,0c0.6,0,1.1,0.5,1.1,1.1v150.3c0,1.1,0.9,2,2,2H998c1.1,0,2-0.9,2-2V582.8
		C1000,581.7,999.1,580.8,998,580.8z"/>
</g>
<g class="st2">
	<line class="st3" x1="200" y1="737.3" x2="200" y2="1086.9"/>
	<line class="st3" x1="200" y1="462.7" x2="200" y2="737.3"/>
	<line class="st3" x1="200" y1="115.8" x2="200" y2="462.7"/>
	<line class="st3" x1="200" y1="1200" x2="200" y2="1086.9"/>
	<line class="st3" x1="200" y1="0" x2="200" y2="115.8"/>
	<line class="st3" x1="1000" y1="737.3" x2="1000" y2="482.9"/>
	<line class="st3" x1="1000" y1="1200" x2="1000" y2="1114.1"/>
	<line class="st3" x1="1000" y1="1114.1" x2="1000" y2="737.3"/>
	<line class="st3" x1="1000" y1="0" x2="1000" y2="87.9"/>
	<line class="st3" x1="1000" y1="462.7" x2="1000" y2="482.9"/>
	<line class="st3" x1="1000" y1="87.9" x2="1000" y2="462.7"/>
	<line class="st3" x1="1000" y1="482.9" x2="853.4" y2="737.3"/>
	<line class="st3" x1="853.4" y1="737.3" x2="817.9" y2="799"/>
	<line class="st3" x1="653.3" y1="1084.5" x2="706" y2="993.2"/>
	<line class="st3" x1="620" y1="1142.4" x2="653.3" y2="1084.5"/>
	<line class="st3" x1="586.8" y1="1200" x2="620" y2="1142.4"/>
	<line class="st3" x1="1011.6" y1="462.7" x2="1000" y2="482.9"/>
	<line class="st3" x1="706" y1="993.2" x2="817.9" y2="799"/>
	<line class="st3" x1="1200" y1="135.8" x2="1011.6" y2="462.7"/>
	<line class="st3" x1="620" y1="358.7" x2="591.7" y2="407.6"/>
	<line class="st3" x1="826.5" y1="0.5" x2="653.3" y2="300.8"/>
	<line class="st3" x1="653.3" y1="300.8" x2="620" y2="358.7"/>
	<line class="st3" x1="563.4" y1="456.8" x2="591.7" y2="407.6"/>
	<line class="st3" x1="563.4" y1="456.8" x2="560" y2="462.7"/>
	<line class="st3" x1="200" y1="1086.9" x2="401.6" y2="737.3"/>
	<line class="st3" x1="480" y1="601.4" x2="401.6" y2="737.3"/>
	<line class="st3" x1="134.8" y1="1200" x2="200" y2="1086.9"/>
	<line class="st3" x1="530.5" y1="513.7" x2="480" y2="601.4"/>
	<line class="st3" x1="560" y1="462.7" x2="530.5" y2="513.7"/>
	<line class="st3" x1="825.2" y1="1200" x2="706" y2="993.2"/>
	<line class="st3" x1="400" y1="462.7" x2="200" y2="115.8"/>
	<line class="st3" x1="133.5" y1="0.5" x2="200" y2="115.8"/>
	<line class="st3" x1="480" y1="601.4" x2="530.5" y2="689"/>
	<line class="st3" x1="620" y1="844.1" x2="653.3" y2="902"/>
	<line class="st3" x1="558.4" y1="737.3" x2="530.5" y2="689"/>
	<line class="st3" x1="706" y1="993.2" x2="653.3" y2="902"/>
	<line class="st3" x1="591.5" y1="794.8" x2="620" y2="844.1"/>
	<line class="st3" x1="558.4" y1="737.3" x2="563.4" y2="746"/>
	<line class="st3" x1="591.5" y1="794.8" x2="563.4" y2="746"/>
	<line class="st3" x1="400" y1="462.7" x2="480" y2="601.4"/>
	<line class="st3" x1="530.5" y1="900.3" x2="563.4" y2="843.5"/>
	<line class="st3" x1="620" y1="745.6" x2="624.7" y2="737.3"/>
	<line class="st3" x1="1000" y1="87.9" x2="783.4" y2="462.7"/>
	<line class="st3" x1="563.4" y1="843.5" x2="591.5" y2="794.8"/>
	<line class="st3" x1="653.3" y1="687.8" x2="624.7" y2="737.3"/>
	<line class="st3" x1="357.4" y1="1200" x2="530.5" y2="900.3"/>
	<line class="st3" x1="703.5" y1="601" x2="653.3" y2="687.8"/>
	<line class="st3" x1="783.4" y1="462.7" x2="703.5" y2="601"/>
	<line class="st3" x1="1000" y1="87.9" x2="1050.5" y2="0.5"/>
	<line class="st3" x1="591.5" y1="794.8" x2="620" y2="745.6"/>
	<line class="st3" x1="703.5" y1="601" x2="653.3" y2="514.2"/>
	<line class="st3" x1="782.3" y1="737.3" x2="703.5" y2="601"/>
	<line class="st3" x1="356.5" y1="0.5" x2="530.5" y2="301.7"/>
	<line class="st3" x1="591.7" y1="407.6" x2="563.4" y2="358.5"/>
	<line class="st3" x1="591.7" y1="407.6" x2="620" y2="456.4"/>
	<line class="st3" x1="1049.6" y1="1200" x2="1000" y2="1114.1"/>
	<line class="st3" x1="653.3" y1="514.2" x2="623.6" y2="462.7"/>
	<line class="st3" x1="623.6" y1="462.7" x2="620" y2="456.4"/>
	<line class="st3" x1="782.3" y1="737.3" x2="817.9" y2="799"/>
	<line class="st3" x1="530.5" y1="301.7" x2="563.4" y2="358.5"/>
	<line class="st3" x1="817.9" y1="799" x2="1000" y2="1114.1"/>
	<line class="st3" x1="620" y1="0" x2="620" y2="358.7"/>
	<line class="st3" x1="620" y1="358.7" x2="620" y2="456.4"/>
	<line class="st3" x1="620" y1="737.3" x2="620" y2="462.7"/>
	<line class="st3" x1="620" y1="456.4" x2="620" y2="462.7"/>
	<line class="st3" x1="620" y1="844.1" x2="620" y2="1142.4"/>
	<line class="st3" x1="620" y1="737.3" x2="620" y2="745.6"/>
	<line class="st3" x1="620" y1="844.1" x2="620" y2="745.6"/>
	<line class="st3" x1="620" y1="1200" x2="620" y2="1142.4"/>
	<line class="st3" x1="563.4" y1="746" x2="563.4" y2="737.3"/>
	<line class="st3" x1="563.4" y1="843.5" x2="563.4" y2="746"/>
	<line class="st3" x1="563.4" y1="1200" x2="563.4" y2="843.5"/>
	<line class="st3" x1="563.4" y1="462.7" x2="563.4" y2="737.3"/>
	<line class="st3" x1="563.4" y1="358.5" x2="563.4" y2="456.8"/>
	<line class="st3" x1="563.4" y1="456.8" x2="563.4" y2="462.7"/>
	<line class="st3" x1="563.4" y1="0" x2="563.4" y2="358.5"/>
	<line class="st3" x1="530.5" y1="1200" x2="530.5" y2="900.3"/>
	<line class="st3" x1="530.5" y1="689" x2="530.5" y2="737.3"/>
	<line class="st3" x1="530.5" y1="462.7" x2="530.5" y2="513.7"/>
	<line class="st3" x1="530.5" y1="737.3" x2="530.5" y2="900.3"/>
	<line class="st3" x1="530.5" y1="301.7" x2="530.5" y2="0"/>
	<line class="st3" x1="530.5" y1="513.7" x2="530.5" y2="689"/>
	<line class="st3" x1="530.5" y1="301.7" x2="530.5" y2="462.7"/>
	<line class="st3" x1="653.3" y1="1200" x2="653.3" y2="1084.5"/>
	<line class="st3" x1="653.3" y1="1084.5" x2="653.3" y2="902"/>
	<line class="st3" x1="653.3" y1="514.2" x2="653.3" y2="462.7"/>
	<line class="st3" x1="653.3" y1="462.7" x2="653.3" y2="300.8"/>
	<line class="st3" x1="653.3" y1="514.2" x2="653.3" y2="687.8"/>
	<line class="st3" x1="653.3" y1="0" x2="653.3" y2="300.8"/>
	<line class="st3" x1="653.3" y1="737.3" x2="653.3" y2="687.8"/>
	<line class="st3" x1="653.3" y1="902" x2="653.3" y2="737.3"/>
	<line class="st3" x1="200" y1="462.7" x2="400" y2="462.7"/>
	<line class="st3" x1="200" y1="462.7" x2="0" y2="462.7"/>
	<line class="st3" x1="620" y1="462.7" x2="563.4" y2="462.7"/>
	<line class="st3" x1="530.5" y1="462.7" x2="400" y2="462.7"/>
	<line class="st3" x1="1011.6" y1="462.7" x2="1200" y2="462.7"/>
	<line class="st3" x1="1011.6" y1="462.7" x2="1000" y2="462.7"/>
	<line class="st3" x1="530.5" y1="462.7" x2="560" y2="462.7"/>
	<line class="st3" x1="1000" y1="462.7" x2="783.4" y2="462.7"/>
	<line class="st3" x1="653.3" y1="462.7" x2="623.6" y2="462.7"/>
	<line class="st3" x1="620" y1="462.7" x2="623.6" y2="462.7"/>
	<line class="st3" x1="783.4" y1="462.7" x2="653.3" y2="462.7"/>
	<line class="st3" x1="560" y1="462.7" x2="563.4" y2="462.7"/>
	<line class="st3" x1="782.3" y1="737.3" x2="653.3" y2="737.3"/>
	<line class="st3" x1="624.7" y1="737.3" x2="620" y2="737.3"/>
	<line class="st3" x1="401.6" y1="737.3" x2="530.5" y2="737.3"/>
	<line class="st3" x1="563.4" y1="737.3" x2="558.4" y2="737.3"/>
	<line class="st3" x1="853.4" y1="737.3" x2="782.3" y2="737.3"/>
	<line class="st3" x1="853.4" y1="737.3" x2="1000" y2="737.3"/>
	<line class="st3" x1="563.4" y1="737.3" x2="620" y2="737.3"/>
	<line class="st3" x1="530.5" y1="737.3" x2="558.4" y2="737.3"/>
	<line class="st3" x1="200" y1="737.3" x2="0" y2="737.3"/>
	<line class="st3" x1="624.7" y1="737.3" x2="653.3" y2="737.3"/>
	<line class="st3" x1="1200" y1="737.3" x2="1000" y2="737.3"/>
	<line class="st3" x1="401.6" y1="737.3" x2="200" y2="737.3"/>
</g>
</svg>
